<?xml version="1.0" standalone="no"?>
<!DOCTYPE svg PUBLIC "-//W3C//DTD SVG 20010904//EN"
 "http://www.w3.org/TR/2001/REC-SVG-20010904/DTD/svg10.dtd">
<svg version="1.0" xmlns="http://www.w3.org/2000/svg"
 width="280.000000pt" height="280.000000pt" viewBox="0 0 280.000000 280.000000"
 preserveAspectRatio="xMidYMid meet">
<metadata>
Created by potrace 1.14, written by Peter Selinger 2001-2017
</metadata>
<g transform="translate(0.000000,280.000000) scale(0.100000,-0.100000)"
fill="#000000" stroke="none">
<path d="M0 1400 l0 -1400 1400 0 1400 0 0 1400 0 1400 -1400 0 -1400 0 0
-1400z m1120 463 c146 -240 274 -451 286 -470 l21 -35 279 471 279 471 248 0
247 0 0 -875 0 -875 -270 0 -270 0 -2 392 -3 392 -183 -308 -183 -307 -151 3
-151 3 -176 287 c-97 158 -179 290 -183 294 -5 4 -8 -164 -8 -374 l0 -382
-270 0 -270 0 0 875 0 875 248 0 247 0 265 -437z"/>
<path d="M800 2264 c0 -13 583 -964 590 -964 32 0 -6 72 -267 500 -213 351
-290 470 -304 470 -11 0 -19 -3 -19 -6z"/>
<path d="M2400 1425 l0 -845 25 0 25 0 0 845 0 845 -25 0 -25 0 0 -845z"/>
<path d="M1750 1158 c-102 -171 -198 -333 -213 -360 l-29 -48 24 0 c20 0 51
48 216 326 163 275 193 331 190 359 -3 30 -21 3 -188 -277z"/>
<path d="M820 1010 l0 -430 25 0 25 0 0 396 c0 384 -1 398 -21 430 -11 19 -23
34 -25 34 -2 0 -4 -193 -4 -430z"/>
</g>
</svg>
